<svg width="72" height="72" viewBox="0 0 72 72" fill="none" xmlns="http://www.w3.org/2000/svg">
<g clip-path="url(#clip0_237_5069)">
<path d="M45.1671 21.5151C42.7853 19.0679 39.5795 17.7204 36.1407 17.7204C29.0419 17.7204 23.2615 23.4503 23.2208 30.5096V30.5854C23.2417 35.6006 25.3143 38.4379 26.9814 40.7203C28.2734 42.4885 29.1265 43.6564 29.1265 45.6257V49.1034C29.1265 52.1125 31.5616 54.5608 34.5549 54.5608H37.7261C40.738 54.5608 43.1879 52.1125 43.1879 49.1034V45.6257C43.1879 43.6207 44.0498 42.3819 45.2424 40.6675C46.8249 38.3928 48.7926 35.5655 48.8124 30.5854V30.5096H48.8118C48.7931 27.1038 47.5006 23.9123 45.1671 21.5151ZM34.751 48.9364V46.1244H37.5635V48.9364H34.751ZM40.6259 37.4551C39.9821 38.3802 39.3009 39.3602 38.7445 40.4994H33.526C32.936 39.3371 32.2093 38.3412 31.5232 37.4024C30.0928 35.4441 28.8562 33.7516 28.8453 30.5524C28.8634 26.5754 32.1291 23.3448 36.1407 23.3448C40.0815 23.3448 43.1714 26.5078 43.1879 30.5524C43.1775 33.7868 41.9942 35.488 40.6259 37.4551ZM69.1481 36.1428C69.9984 33.9681 70.6702 31.7812 71.1498 29.6054C72.1622 25.0109 72.2709 20.6922 71.4733 16.7695C70.6175 12.5585 68.7591 8.99943 65.9505 6.19078C63.1413 3.38157 59.5823 1.52324 55.3712 0.667402C51.4491 -0.130205 47.1304 -0.0214407 42.5353 0.99095C40.3595 1.4705 38.1726 2.14232 35.9979 2.99266C33.8243 2.14342 31.6391 1.4705 29.4649 0.99095C24.8704 -0.0214407 20.5517 -0.130205 16.6285 0.667402C12.418 1.52324 8.85893 3.38157 6.04973 6.19078C3.24107 8.99943 1.38273 12.5585 0.526899 16.7695C-0.270708 20.6922 -0.161944 25.0109 0.850447 29.6054C1.32945 31.7796 2.00291 33.9648 2.85161 36.1384C2.00181 38.3132 1.33 40.5 0.850447 42.6758C-0.161944 47.2703 -0.270708 51.589 0.526899 55.5117C1.38273 59.7228 3.24107 63.2818 6.04973 66.0904C8.85893 68.8996 12.418 70.7574 16.6285 71.6138C18.3555 71.9648 20.1589 72.1406 22.0293 72.1406C24.4073 72.1406 26.893 71.8566 29.4643 71.2897C31.6402 70.8102 33.827 70.1389 36.0023 69.2886C38.1759 70.1378 40.3611 70.8107 42.5353 71.2897C45.1072 71.8566 47.5923 72.1406 49.9703 72.1406C51.8402 72.1406 53.6447 71.9648 55.3712 71.6138C59.5823 70.7574 63.1413 68.8991 65.9499 66.091C68.7591 63.2818 70.6169 59.7228 71.4733 55.5117C72.2709 51.589 72.1622 47.2703 71.1492 42.6758C70.6702 40.5016 69.9973 38.3165 69.1481 36.1428ZM43.7455 6.48411C45.9389 6.00072 48.0329 5.76176 50.0005 5.76176C54.929 5.76176 59.0654 7.25975 61.9729 10.1678C66.0422 14.2366 67.3501 20.7098 65.6566 28.3947C65.628 28.5254 65.5978 28.6556 65.5671 28.7864C62.993 24.3874 59.7157 20.1522 55.8519 16.2889C51.9885 12.425 47.7533 9.14775 43.3544 6.57365C43.4851 6.54289 43.6153 6.51268 43.7455 6.48411ZM28.2542 65.7977C26.0608 66.2811 23.9673 66.5195 21.9991 66.5195C17.0712 66.5195 12.9349 65.0215 10.0268 62.1134C5.95799 58.0446 4.64952 51.5715 6.34306 43.8865C6.37163 43.7558 6.40239 43.6256 6.4326 43.4949C9.0067 47.8938 12.2839 52.129 16.1478 55.9924C20.0117 59.8562 24.2469 63.1335 28.6453 65.7081C28.5151 65.7383 28.3849 65.7685 28.2542 65.7977ZM61.9729 62.1134C57.9041 66.1827 51.4304 67.4912 43.7455 65.7977C43.6158 65.7685 43.4856 65.7372 43.3555 65.707C45.5582 64.4178 47.7198 62.9527 49.8143 61.3257C48.1087 60.4264 46.7464 58.962 45.9801 57.1811C42.7699 59.6343 39.4053 61.6597 35.999 63.1933C30.4322 60.6879 24.9759 56.8663 20.1249 52.0153C15.2744 47.1648 11.4528 41.7085 8.94737 36.1417C10.4948 32.7041 12.5437 29.3088 15.0272 26.0716C13.2216 25.3663 11.7176 24.0562 10.764 22.3912C9.15666 24.4654 7.70921 26.605 6.4337 28.7847C6.40349 28.6545 6.37163 28.5249 6.34306 28.3947C4.64952 20.7098 5.95799 14.2366 10.0268 10.1678C12.9349 7.25975 17.0707 5.76176 21.9991 5.76176C23.9668 5.76176 26.0613 6.00072 28.2542 6.48411C28.3838 6.51213 28.514 6.54399 28.6437 6.5742C26.4711 7.84587 24.3376 9.28837 22.2699 10.8896C23.9344 11.8438 25.2439 13.3484 25.9487 15.1545C29.1803 12.6771 32.5696 10.6326 36.0007 9.08787C41.568 11.5939 47.0238 15.4154 51.8748 20.2659C56.7258 25.1169 60.5469 30.5727 63.0528 36.1401C61.5219 39.5398 59.501 42.8983 57.0538 46.103C58.8352 46.8688 60.3002 48.2305 61.2 49.9361C62.8216 47.8476 64.2811 45.6921 65.566 43.4965C65.5962 43.6267 65.628 43.7569 65.6566 43.8865C67.3501 51.5715 66.0422 58.0446 61.9729 62.1134ZM56.5462 53.8577C56.5462 55.4112 55.2872 56.6702 53.7337 56.6702C52.1808 56.6702 50.9217 55.4112 50.9217 53.8577C50.9217 52.3048 52.1808 51.0458 53.7337 51.0458C55.2872 51.0458 56.5462 52.3048 56.5462 53.8577ZM20.8302 18.2829C20.8302 19.8358 19.5711 21.0948 18.0182 21.0948C16.4648 21.0948 15.2057 19.8358 15.2057 18.2829C15.2057 16.7294 16.4648 15.4704 18.0182 15.4704C19.5711 15.4704 20.8302 16.7294 20.8302 18.2829Z" fill="#5380EA"/>
<path d="M45.1671 21.5151C42.7853 19.0679 39.5795 17.7204 36.1407 17.7204C29.0419 17.7204 23.2615 23.4503 23.2208 30.5096V30.5854C23.2417 35.6006 25.3143 38.4379 26.9814 40.7203C28.2734 42.4885 29.1265 43.6564 29.1265 45.6257V49.1034C29.1265 52.1125 31.5616 54.5608 34.5549 54.5608H37.7261C40.738 54.5608 43.1879 52.1125 43.1879 49.1034V45.6257C43.1879 43.6207 44.0498 42.3819 45.2424 40.6675C46.8249 38.3928 48.7926 35.5655 48.8124 30.5854V30.5096H48.8118C48.7931 27.1038 47.5006 23.9123 45.1671 21.5151ZM34.751 48.9364V46.1244H37.5635V48.9364H34.751ZM40.6259 37.4551C39.9821 38.3802 39.3009 39.3602 38.7445 40.4994H33.526C32.936 39.3371 32.2093 38.3412 31.5232 37.4024C30.0928 35.4441 28.8562 33.7516 28.8453 30.5524C28.8634 26.5754 32.1291 23.3448 36.1407 23.3448C40.0815 23.3448 43.1714 26.5078 43.1879 30.5524C43.1775 33.7868 41.9942 35.488 40.6259 37.4551ZM69.1481 36.1428C69.9984 33.9681 70.6702 31.7812 71.1498 29.6054C72.1622 25.0109 72.2709 20.6922 71.4733 16.7695C70.6175 12.5585 68.7591 8.99943 65.9505 6.19078C63.1413 3.38157 59.5823 1.52324 55.3712 0.667402C51.4491 -0.130205 47.1304 -0.0214407 42.5353 0.99095C40.3595 1.4705 38.1726 2.14232 35.9979 2.99266C33.8243 2.14342 31.6391 1.4705 29.4649 0.99095C24.8704 -0.0214407 20.5517 -0.130205 16.6285 0.667402C12.418 1.52324 8.85893 3.38157 6.04973 6.19078C3.24107 8.99943 1.38273 12.5585 0.526899 16.7695C-0.270708 20.6922 -0.161944 25.0109 0.850447 29.6054C1.32945 31.7796 2.00291 33.9648 2.85161 36.1384C2.00181 38.3132 1.33 40.5 0.850447 42.6758C-0.161944 47.2703 -0.270708 51.589 0.526899 55.5117C1.38273 59.7228 3.24107 63.2818 6.04973 66.0904C8.85893 68.8996 12.418 70.7574 16.6285 71.6138C18.3555 71.9648 20.1589 72.1406 22.0293 72.1406C24.4073 72.1406 26.893 71.8566 29.4643 71.2897C31.6402 70.8102 33.827 70.1389 36.0023 69.2886C38.1759 70.1378 40.3611 70.8107 42.5353 71.2897C45.1072 71.8566 47.5923 72.1406 49.9703 72.1406C51.8402 72.1406 53.6447 71.9648 55.3712 71.6138C59.5823 70.7574 63.1413 68.8991 65.9499 66.091C68.7591 63.2818 70.6169 59.7228 71.4733 55.5117C72.2709 51.589 72.1622 47.2703 71.1492 42.6758C70.6702 40.5016 69.9973 38.3165 69.1481 36.1428ZM43.7455 6.48411C45.9389 6.00072 48.0329 5.76176 50.0005 5.76176C54.929 5.76176 59.0654 7.25975 61.9729 10.1678C66.0422 14.2366 67.3501 20.7098 65.6566 28.3947C65.628 28.5254 65.5978 28.6556 65.5671 28.7864C62.993 24.3874 59.7157 20.1522 55.8519 16.2889C51.9885 12.425 47.7533 9.14775 43.3544 6.57365C43.4851 6.54289 43.6153 6.51268 43.7455 6.48411ZM28.2542 65.7977C26.0608 66.2811 23.9673 66.5195 21.9991 66.5195C17.0712 66.5195 12.9349 65.0215 10.0268 62.1134C5.95799 58.0446 4.64952 51.5715 6.34306 43.8865C6.37163 43.7558 6.40239 43.6256 6.4326 43.4949C9.0067 47.8938 12.2839 52.129 16.1478 55.9924C20.0117 59.8562 24.2469 63.1335 28.6453 65.7081C28.5151 65.7383 28.3849 65.7685 28.2542 65.7977ZM61.9729 62.1134C57.9041 66.1827 51.4304 67.4912 43.7455 65.7977C43.6158 65.7685 43.4856 65.7372 43.3555 65.707C45.5582 64.4178 47.7198 62.9527 49.8143 61.3257C48.1087 60.4264 46.7464 58.962 45.9801 57.1811C42.7699 59.6343 39.4053 61.6597 35.999 63.1933C30.4322 60.6879 24.9759 56.8663 20.1249 52.0153C15.2744 47.1648 11.4528 41.7085 8.94737 36.1417C10.4948 32.7041 12.5437 29.3088 15.0272 26.0716C13.2216 25.3663 11.7176 24.0562 10.764 22.3912C9.15666 24.4654 7.70921 26.605 6.4337 28.7847C6.40349 28.6545 6.37163 28.5249 6.34306 28.3947C4.64952 20.7098 5.95799 14.2366 10.0268 10.1678C12.9349 7.25975 17.0707 5.76176 21.9991 5.76176C23.9668 5.76176 26.0613 6.00072 28.2542 6.48411C28.3838 6.51213 28.514 6.54399 28.6437 6.5742C26.4711 7.84587 24.3376 9.28837 22.2699 10.8896C23.9344 11.8438 25.2439 13.3484 25.9487 15.1545C29.1803 12.6771 32.5696 10.6326 36.0007 9.08787C41.568 11.5939 47.0238 15.4154 51.8748 20.2659C56.7258 25.1169 60.5469 30.5727 63.0528 36.1401C61.5219 39.5398 59.501 42.8983 57.0538 46.103C58.8352 46.8688 60.3002 48.2305 61.2 49.9361C62.8216 47.8476 64.2811 45.6921 65.566 43.4965C65.5962 43.6267 65.628 43.7569 65.6566 43.8865C67.3501 51.5715 66.0422 58.0446 61.9729 62.1134ZM56.5462 53.8577C56.5462 55.4112 55.2872 56.6702 53.7337 56.6702C52.1808 56.6702 50.9217 55.4112 50.9217 53.8577C50.9217 52.3048 52.1808 51.0458 53.7337 51.0458C55.2872 51.0458 56.5462 52.3048 56.5462 53.8577ZM20.8302 18.2829C20.8302 19.8358 19.5711 21.0948 18.0182 21.0948C16.4648 21.0948 15.2057 19.8358 15.2057 18.2829C15.2057 16.7294 16.4648 15.4704 18.0182 15.4704C19.5711 15.4704 20.8302 16.7294 20.8302 18.2829Z" fill="#5380EA"/>
</g>
<defs>
<clipPath id="clip0_237_5069">
<rect width="72" height="72" fill="white"/>
</clipPath>
</defs>
</svg>
