<svg width="41" height="40" viewBox="0 0 41 40" fill="none" xmlns="http://www.w3.org/2000/svg">
<g clip-path="url(#clip0_258_24)">
<path d="M30.1989 13.3334H31.8656C33.6337 13.3334 35.3294 14.0358 36.5796 15.286C37.8298 16.5363 38.5322 18.232 38.5322 20.0001C38.5322 21.7682 37.8298 23.4639 36.5796 24.7141C35.3294 25.9644 33.6337 26.6667 31.8656 26.6667H30.1989M30.1989 13.3334H3.53223V28.3334C3.53223 30.1015 4.23461 31.7972 5.48485 33.0475C6.73509 34.2977 8.43078 35.0001 10.1989 35.0001H23.5322C25.3003 35.0001 26.996 34.2977 28.2463 33.0475C29.4965 31.7972 30.1989 30.1015 30.1989 28.3334V13.3334ZM10.1989 1.66675V6.66675M16.8656 1.66675V6.66675M23.5322 1.66675V6.66675" stroke="#2478FE" stroke-width="3.5" stroke-linecap="round" stroke-linejoin="round"/>
</g>
<defs>
<clipPath id="clip0_258_24">
<rect width="40" height="40" fill="white" transform="translate(0.19873)"/>
</clipPath>
</defs>
</svg>
