<svg width="50" height="50" viewBox="0 0 50 50" fill="none" xmlns="http://www.w3.org/2000/svg">
<path d="M16.1458 12.5C15.1789 12.5 14.2516 12.8841 13.5678 13.5678C12.8841 14.2516 12.5 15.1789 12.5 16.1458V20.3125C12.5 21.2794 12.8841 22.2068 13.5678 22.8905C14.2516 23.5742 15.1789 23.9583 16.1458 23.9583H20.3125C21.2794 23.9583 22.2068 23.5742 22.8905 22.8905C23.5742 22.2068 23.9583 21.2794 23.9583 20.3125V16.1458C23.9583 15.1789 23.5742 14.2516 22.8905 13.5678C22.2068 12.8841 21.2794 12.5 20.3125 12.5H16.1458ZM16.1458 26.0417C15.1789 26.0417 14.2516 26.4258 13.5678 27.1095C12.8841 27.7932 12.5 28.7206 12.5 29.6875V33.8542C12.5 34.8211 12.8841 35.7484 13.5678 36.4322C14.2516 37.1159 15.1789 37.5 16.1458 37.5H20.3125C21.2794 37.5 22.2068 37.1159 22.8905 36.4322C23.5742 35.7484 23.9583 34.8211 23.9583 33.8542V29.6875C23.9583 28.7206 23.5742 27.7932 22.8905 27.1095C22.2068 26.4258 21.2794 26.0417 20.3125 26.0417H16.1458ZM29.6875 12.5C28.7206 12.5 27.7932 12.8841 27.1095 13.5678C26.4258 14.2516 26.0417 15.1789 26.0417 16.1458V20.3125C26.0417 21.2794 26.4258 22.2068 27.1095 22.8905C27.7932 23.5742 28.7206 23.9583 29.6875 23.9583H33.8542C34.8211 23.9583 35.7484 23.5742 36.4322 22.8905C37.1159 22.2068 37.5 21.2794 37.5 20.3125V16.1458C37.5 15.1789 37.1159 14.2516 36.4322 13.5678C35.7484 12.8841 34.8211 12.5 33.8542 12.5H29.6875ZM29.6875 26.0417C28.7206 26.0417 27.7932 26.4258 27.1095 27.1095C26.4258 27.7932 26.0417 28.7206 26.0417 29.6875V33.8542C26.0417 34.8211 26.4258 35.7484 27.1095 36.4322C27.7932 37.1159 28.7206 37.5 29.6875 37.5H33.8542C34.8211 37.5 35.7484 37.1159 36.4322 36.4322C37.1159 35.7484 37.5 34.8211 37.5 33.8542V29.6875C37.5 28.7206 37.1159 27.7932 36.4322 27.1095C35.7484 26.4258 34.8211 26.0417 33.8542 26.0417H29.6875ZM6.25 12.7604C6.25 11.0337 6.93592 9.3778 8.15686 8.15686C9.3778 6.93592 11.0337 6.25 12.7604 6.25H37.2396C38.9663 6.25 40.6222 6.93592 41.8431 8.15686C43.0641 9.3778 43.75 11.0337 43.75 12.7604V37.2396C43.75 38.9663 43.0641 40.6222 41.8431 41.8431C40.6222 43.0641 38.9663 43.75 37.2396 43.75H12.7604C11.0337 43.75 9.3778 43.0641 8.15686 41.8431C6.93592 40.6222 6.25 38.9663 6.25 37.2396V12.7604ZM12.7604 8.85417C11.7244 8.85417 10.7308 9.26572 9.99828 9.99828C9.26572 10.7308 8.85417 11.7244 8.85417 12.7604V37.2396C8.85417 38.2756 9.26572 39.2692 9.99828 40.0017C10.7308 40.7343 11.7244 41.1458 12.7604 41.1458H37.2396C38.2756 41.1458 39.2692 40.7343 40.0017 40.0017C40.7343 39.2692 41.1458 38.2756 41.1458 37.2396V12.7604C41.1458 11.7244 40.7343 10.7308 40.0017 9.99828C39.2692 9.26572 38.2756 8.85417 37.2396 8.85417H12.7604Z" fill="#5380EA"/>
</svg>
