<svg width="20" height="21" viewBox="0 0 20 21" fill="none" xmlns="http://www.w3.org/2000/svg">
<path d="M3.33317 16.7232C2.87484 16.7232 2.48248 16.56 2.15609 16.2336C1.8297 15.9073 1.6665 15.5149 1.6665 15.0566V5.05656C1.6665 4.59823 1.8297 4.20586 2.15609 3.87948C2.48248 3.55309 2.87484 3.38989 3.33317 3.38989H8.33317L9.99984 5.05656H16.6665C17.1248 5.05656 17.5172 5.21975 17.8436 5.54614C18.17 5.87253 18.3332 6.26489 18.3332 6.72323V15.0566C18.3332 15.5149 18.17 15.9073 17.8436 16.2336C17.5172 16.56 17.1248 16.7232 16.6665 16.7232H3.33317ZM3.33317 15.0566H16.6665V6.72323H9.31234L7.64567 5.05656H3.33317V15.0566Z" fill="white"/>
</svg>
