<svg width="52" height="52" viewBox="0 0 52 52" fill="none" xmlns="http://www.w3.org/2000/svg">
<g clip-path="url(#clip0_237_5138)">
<path d="M49.69 39.9937L41.5155 22.5396C41.3372 22.1586 40.8836 21.9946 40.5025 22.1728C40.1216 22.3513 39.9573 22.8049 40.1358 23.1858L48.3102 40.6396C48.6758 41.4215 48.3374 42.3556 47.5558 42.7218L31.883 50.0616C31.1014 50.4277 30.1676 50.0896 29.8012 49.308L26.871 43.0495L34.4977 24.6483C34.8273 23.853 34.8088 22.949 34.4472 22.1679L30.2755 13.1565L35.683 14.8672C36.0992 14.9986 36.4437 15.3005 36.6285 15.6962L38.6315 19.9714C38.761 20.2478 39.0354 20.4101 39.3218 20.4101C39.43 20.4101 39.54 20.3869 39.6445 20.338C40.0255 20.1596 40.1896 19.7059 40.0111 19.3249L38.0083 15.0504C37.6439 14.2702 36.9636 13.6739 36.1421 13.4146L29.6207 11.3514C30.9652 9.38737 32.3815 6.76105 32.8688 5.58526C34.1467 2.50221 33.1153 0.787621 31.7241 0.210946C30.3328 -0.365526 28.391 0.116797 27.1132 3.19985C26.5636 4.52585 26.0593 7.4137 25.7007 9.89113C25.2739 9.91763 24.8449 10.007 24.4271 10.1668L14.5606 13.9366C13.7712 14.2382 13.1329 14.859 12.8093 15.6395L2.2564 41.1019C1.94044 41.8642 1.94023 42.7038 2.25589 43.4663C2.57145 44.2287 3.16508 44.8225 3.92731 45.1384L7.01382 46.4176C7.4025 46.5787 7.84826 46.3942 8.00924 46.0055C8.17032 45.6169 7.98588 45.1712 7.5972 45.0101L4.51069 43.7308C4.12445 43.5708 3.82352 43.2698 3.66356 42.8834C3.50359 42.4969 3.5037 42.0715 3.66386 41.6852L14.2171 16.2225C14.3811 15.8269 14.7046 15.5122 15.1046 15.3594L24.9712 11.5896C25.1407 11.5248 25.313 11.4778 25.4862 11.4473C25.3921 12.1628 25.3157 12.7885 25.2604 13.2575C24.9374 13.276 24.6173 13.3557 24.3154 13.4971C23.6928 13.7886 23.2211 14.3052 22.987 14.9515C22.7529 15.598 22.7846 16.2967 23.0761 16.9193C23.5131 17.8527 24.4424 18.4013 25.4109 18.4013C25.7758 18.4013 26.1465 18.3233 26.4983 18.1586C27.1209 17.8671 27.5926 17.3504 27.8267 16.7042C28.0607 16.0577 28.0291 15.359 27.7377 14.7364C27.5205 14.2729 27.1785 13.8932 26.7511 13.6327C26.8078 13.1476 26.8942 12.4323 27.0039 11.5996C27.6632 11.8566 28.2269 12.3574 28.5438 13.042L33.0645 22.8076C33.2479 23.2034 33.2571 23.6618 33.09 24.0648L22.5439 49.5103C22.3839 49.8965 22.0829 50.1975 21.6965 50.3574C21.3101 50.5175 20.8846 50.5173 20.4982 50.3572L11.0733 46.451C10.6848 46.2897 10.239 46.4744 10.0779 46.863C9.9169 47.2517 10.1012 47.6974 10.4899 47.8585L19.9149 51.7647C20.3003 51.9244 20.7002 52 21.0936 52C22.3062 52 23.459 51.2816 23.9513 50.0936L26.081 44.9554L28.4214 49.9541C28.9462 51.0741 30.0616 51.7327 31.2236 51.7327C31.6618 51.7327 32.1068 51.639 32.5291 51.4411L48.2019 44.1014C49.7439 43.3789 50.4115 41.5365 49.69 39.9937ZM26.3942 16.1854C26.2987 16.4491 26.1063 16.6598 25.8521 16.7788C25.3279 17.0244 24.7014 16.7975 24.4559 16.2733C24.3369 16.0193 24.324 15.7342 24.4195 15.4704C24.515 15.2067 24.7074 14.996 24.9614 14.877C25.103 14.8106 25.2542 14.7773 25.4061 14.7773C25.5266 14.7773 25.6475 14.7984 25.7642 14.8406C26.0278 14.9361 26.2386 15.1285 26.3576 15.3825C26.4768 15.6367 26.4898 15.9216 26.3942 16.1854ZM28.3136 10.5642C27.9722 10.3478 27.6023 10.1797 27.2156 10.0644C27.5591 7.68711 28.0303 4.96735 28.521 3.78302C28.8666 2.94888 29.8139 1.06854 31.141 1.61831C32.4681 2.16837 31.8074 4.16774 31.4616 5.00178C30.9932 6.13197 29.612 8.68608 28.3136 10.5642Z" fill="#5380EA"/>
<path d="M15.6826 25.6846C17.333 24.8062 19.2267 24.6228 21.015 25.1689C23.9833 26.0751 25.9756 28.7669 25.9728 31.8672C25.9724 32.2879 26.3131 32.6293 26.7339 32.6297C26.7341 32.6297 26.7343 32.6297 26.7346 32.6297C27.155 32.6297 27.496 32.2891 27.4964 31.8686C27.4981 30.0798 26.9162 28.2944 25.8581 26.8413C24.7636 25.3383 23.2427 24.256 21.4598 23.7116C16.9647 22.3395 12.1916 24.88 10.8196 29.3749C10.1548 31.5524 10.3779 33.8582 11.4476 35.8679C12.5173 37.8777 14.3054 39.3505 16.4828 40.0152C17.2966 40.2637 18.1354 40.387 18.9727 40.387C20.1633 40.387 21.35 40.1373 22.4531 39.6431C24.3135 38.8097 25.8141 37.3401 26.6786 35.505C26.8579 35.1244 26.6947 34.6704 26.3141 34.4912C25.9336 34.3117 25.4796 34.475 25.3004 34.8556C23.8309 37.9749 20.2318 39.5667 16.9278 38.5579C15.1396 38.0121 13.6711 36.8025 12.7926 35.1521C11.9142 33.5017 11.731 31.6079 12.277 29.8197C12.8226 28.0316 14.0323 26.563 15.6826 25.6846Z" fill="#5380EA"/>
<path d="M21.9014 29.7901C21.7191 29.4474 21.4142 29.1961 21.0428 29.0829L20.6967 28.9773L20.9319 28.207C21.0547 27.8046 20.8281 27.3788 20.4258 27.256C20.0232 27.1334 19.5976 27.3598 19.4747 27.7621L19.2343 28.5498C18.2194 28.3746 17.2058 28.9775 16.8976 29.9876C16.7357 30.5179 16.79 31.0795 17.0506 31.5688C17.311 32.0582 17.7466 32.417 18.2767 32.5788L19.2357 32.8715C19.3767 32.9145 19.4925 33.0099 19.5618 33.1401C19.6311 33.2702 19.6455 33.4196 19.6024 33.5607C19.5594 33.7017 19.464 33.8174 19.3338 33.8867C19.2037 33.9561 19.0544 33.9705 18.9133 33.9273L18.4339 33.781L17.4234 33.4725C17.5027 33.0914 17.2795 32.7055 16.8997 32.5896C16.4971 32.4671 16.0715 32.6934 15.9487 33.0958C15.7148 33.8622 16.1479 34.676 16.9144 34.9101L17.2605 35.0158L17.0254 35.786C16.9026 36.1884 17.1292 36.6143 17.5315 36.7371C17.6056 36.7597 17.6804 36.7705 17.7541 36.7705C18.0803 36.7705 18.3822 36.5592 18.4825 36.2309L18.7227 35.444C18.8405 35.4645 18.9589 35.4759 19.0771 35.4759C19.4126 35.4759 19.7452 35.3937 20.0497 35.2316C20.539 34.9712 20.8978 34.5356 21.0596 34.0054C21.3938 32.9108 20.7752 31.7484 19.6805 31.4143L18.7216 31.1216C18.5806 31.0785 18.4648 30.9831 18.3955 30.8529C18.3263 30.7228 18.3118 30.5734 18.3549 30.4324C18.4437 30.1413 18.7526 29.9765 19.0441 30.0656L19.5232 30.2119C19.5233 30.2119 19.5234 30.212 19.5235 30.212C19.5236 30.212 19.5237 30.212 19.5237 30.212L20.5339 30.5204C20.4546 30.9015 20.6779 31.2873 21.0576 31.4032C21.46 31.526 21.8858 31.2994 22.0086 30.897C22.1219 30.5259 22.0838 30.1327 21.9014 29.7901Z" fill="#5380EA"/>
<path d="M44.6449 39.9536L39.7695 29.5933C39.5903 29.2126 39.1363 29.0492 38.7559 29.2284C38.3753 29.4076 38.212 29.8615 38.391 30.242L43.2664 40.6023C43.3963 40.8782 43.6702 41.04 43.9562 41.04C44.0649 41.04 44.1753 41.0166 44.28 40.9672C44.6607 40.7881 44.824 40.3343 44.6449 39.9536Z" fill="#5380EA"/>
<path d="M41.2387 41.7752L36.3633 31.4149C36.1842 31.0341 35.7301 30.8708 35.3497 31.05C34.9691 31.2291 34.8056 31.683 34.9848 32.0636L39.8602 42.4239C39.99 42.6997 40.264 42.8615 40.55 42.8615C40.6587 42.8615 40.7691 42.8381 40.8738 42.7888C41.2545 42.6096 41.4178 42.1557 41.2387 41.7752Z" fill="#5380EA"/>
</g>
<defs>
<clipPath id="clip0_237_5138">
<rect width="52" height="52" fill="white"/>
</clipPath>
</defs>
</svg>
