<svg width="20" height="20" viewBox="0 0 20 20" fill="none" xmlns="http://www.w3.org/2000/svg">
<g clip-path="url(#clip0_260_26)">
<path d="M16.6665 10.0001V18.3334H3.33317V10.0001M9.99984 18.3334V5.83341M9.99984 5.83341H6.24984C5.6973 5.83341 5.1674 5.61392 4.7767 5.22322C4.386 4.83252 4.1665 4.30262 4.1665 3.75008C4.1665 3.19755 4.386 2.66764 4.7767 2.27694C5.1674 1.88624 5.6973 1.66675 6.24984 1.66675C9.1665 1.66675 9.99984 5.83341 9.99984 5.83341ZM9.99984 5.83341H13.7498C14.3024 5.83341 14.8323 5.61392 15.223 5.22322C15.6137 4.83252 15.8332 4.30262 15.8332 3.75008C15.8332 3.19755 15.6137 2.66764 15.223 2.27694C14.8323 1.88624 14.3024 1.66675 13.7498 1.66675C10.8332 1.66675 9.99984 5.83341 9.99984 5.83341ZM1.6665 5.83341H18.3332V10.0001H1.6665V5.83341Z" stroke="white" stroke-width="2" stroke-linecap="round" stroke-linejoin="round"/>
</g>
<defs>
<clipPath id="clip0_260_26">
<rect width="20" height="20" fill="white"/>
</clipPath>
</defs>
</svg>
