<svg width="50" height="50" viewBox="0 0 50 50" fill="none" xmlns="http://www.w3.org/2000/svg">
<path d="M49.0735 41.3929L40.0476 32.6343C39.4628 32.0668 38.691 31.7627 37.8729 31.7733C37.6015 31.7774 37.3363 31.817 37.0822 31.8887L33.0074 27.9347C36.2323 23.0568 36.8845 16.8562 34.7499 11.4151L36.1481 9.23627C36.5016 9.32182 36.87 9.3683 37.2493 9.3683C39.8318 9.3683 41.9329 7.26723 41.9329 4.68471C41.9329 2.1023 39.8318 0.00132066 37.2493 0.00132066C34.6669 0.00132066 32.5659 2.1023 32.5659 4.68471C32.5659 5.75346 32.9265 6.73901 33.5312 7.52807L33.0978 8.20366C32.7519 7.67133 32.3752 7.1519 31.966 6.64838C28.934 2.91782 24.6308 0.591359 19.8489 0.0973167C15.0669 -0.396628 10.3791 1.00103 6.64853 4.03296C2.91786 7.06479 0.591202 11.3681 0.0972567 16.1499C-0.344247 20.4238 0.726554 24.6221 3.12353 28.1295C1.30653 28.774 0.00135828 30.5092 0.00135828 32.5444C0.00135828 35.1269 2.10234 37.2279 4.68476 37.2279C6.86161 37.2279 8.69628 35.735 9.21894 33.7193C11.3279 34.8978 13.6744 35.6457 16.1498 35.9015C16.7799 35.9666 17.4081 35.9988 18.033 35.9988C21.5231 35.9987 24.9009 34.992 27.8218 33.0819L31.8601 36.9593C31.687 37.3549 31.5986 37.7866 31.6053 38.2321C31.6176 39.0498 31.9465 39.8126 32.5312 40.3799L41.5573 49.1387C42.1502 49.7138 42.9183 50 43.6855 50C44.4838 50 45.2812 49.6901 45.8796 49.0735L49.1384 45.7151C50.3121 44.5057 50.283 42.5669 49.0735 41.3929ZM37.2492 3.12632C38.1087 3.12632 38.8079 3.82544 38.8079 4.68481C38.8079 5.54428 38.1087 6.2435 37.2492 6.2435C36.3898 6.2435 35.6907 5.54428 35.6907 4.68481C35.6907 3.82544 36.3898 3.12632 37.2492 3.12632ZM34.6121 33.846L33.8971 34.5829L30.3037 31.1327C30.5615 30.8915 30.8114 30.6447 31.052 30.3915L34.6121 33.846ZM3.20566 16.471C3.61386 12.5195 5.53642 8.96342 8.61933 6.45796C11.2961 4.28237 14.5688 3.12524 17.9714 3.12524C18.4875 3.12524 19.0072 3.1519 19.5276 3.20571C23.4792 3.61401 27.0353 5.53657 29.5408 8.61938C30.1924 9.42114 30.7462 10.2708 31.2044 11.154L25.7217 19.6975C25.2561 19.5419 24.7587 19.4564 24.2415 19.4564C23.6788 19.4564 23.1391 19.5563 22.6389 19.739L19.5655 16.4361C19.8717 15.8139 20.0443 15.1147 20.0443 14.3757C20.0443 11.7933 17.9433 9.69233 15.3607 9.69233C12.7783 9.69233 10.6773 11.7933 10.6773 14.3757C10.6773 15.4828 11.0643 16.5008 11.709 17.3034L5.89511 26.6401C3.78212 23.6885 2.82939 20.1129 3.20566 16.471ZM24.2416 22.5812C25.101 22.5812 25.8002 23.2803 25.8002 24.1397C25.8002 24.9991 25.101 25.6984 24.2416 25.6984C23.3822 25.6984 22.6831 24.9991 22.6831 24.1397C22.683 23.2803 23.3822 22.5812 24.2416 22.5812ZM13.8023 14.3756C13.8023 13.5162 14.5015 12.8171 15.3608 12.8171C16.2203 12.8171 16.9195 13.5162 16.9195 14.3756C16.9195 15.235 16.2203 15.9342 15.3608 15.9342C14.5014 15.9343 13.8023 15.2351 13.8023 14.3756ZM4.68485 34.103C3.82548 34.103 3.12636 33.4038 3.12636 32.5444C3.12636 31.685 3.82548 30.9859 4.68485 30.9859C5.54423 30.9859 6.24345 31.685 6.24345 32.5444C6.24345 33.4038 5.54423 34.103 4.68485 34.103ZM18.0272 32.8736C17.5111 32.8736 16.9915 32.8469 16.471 32.7931C13.3012 32.4656 10.3863 31.1628 8.06366 29.0692L14.364 18.9513C14.6853 19.0212 15.0186 19.0591 15.3607 19.0591C16.0646 19.0591 16.7322 18.9021 17.3318 18.6227L20.2258 21.7327C19.8023 22.4367 19.5582 23.2601 19.5582 24.1397C19.5582 26.7222 21.6592 28.8233 24.2416 28.8233C26.8241 28.8233 28.9251 26.7222 28.9251 24.1397C28.9251 23.2173 28.656 22.3572 28.1936 21.6314L32.5358 14.8651C33.6687 20.1617 31.863 25.8968 27.3793 29.5407C24.7026 31.7163 21.4299 32.8737 18.0272 32.8736ZM43.6847 46.8483L34.7564 38.1847L37.9201 34.9242L46.8483 43.5879L43.6847 46.8483Z" fill="#5380EA"/>
</svg>
