<svg width="25" height="24" viewBox="0 0 25 24" fill="none" xmlns="http://www.w3.org/2000/svg">
<path fill-rule="evenodd" clip-rule="evenodd" d="M10.1341 4.55804C6.35969 6.97604 4.26295 9.79004 3.8434 13.0015C3.19027 18 7.67147 20.4465 9.94214 18.2485C12.2128 16.05 10.8519 13.26 9.20781 12.497C7.5637 11.7345 6.55819 12 6.73362 10.9805C6.90906 9.96153 9.24791 7.13554 11.303 5.81954C11.3759 5.75776 11.4223 5.6706 11.433 5.57583C11.4436 5.48106 11.4175 5.38582 11.3602 5.30954L10.8519 4.65004C10.6314 4.36404 10.4198 4.37503 10.1341 4.55753V4.55804ZM20.072 4.55804C16.2975 6.97604 14.2003 9.79054 13.7812 13.0015C13.1281 18 17.6093 20.4465 19.88 18.2485C22.1507 16.05 20.7898 13.26 19.1452 12.497C17.501 11.7345 16.4955 12 16.671 10.9805C16.8464 9.96153 19.1858 7.13554 21.2409 5.81954C21.3136 5.75769 21.36 5.6705 21.3705 5.57573C21.3811 5.48097 21.3549 5.38576 21.2975 5.30954L20.7893 4.65004C20.5687 4.36404 20.3572 4.37503 20.072 4.55753V4.55804Z" fill="#5380EA"/>
</svg>
