<svg width="25" height="24" viewBox="0 0 25 24" fill="none" xmlns="http://www.w3.org/2000/svg">
<path fill-rule="evenodd" clip-rule="evenodd" d="M14.8659 19.442C18.6403 17.024 20.7371 14.21 21.1566 10.9985C21.8097 5.99996 17.3285 3.55346 15.0579 5.75146C12.7872 7.94996 14.1481 10.74 15.7922 11.503C17.4363 12.2655 18.4418 12 18.2664 13.0195C18.0909 14.0385 15.7521 16.8645 13.697 18.1805C13.6241 18.2422 13.5777 18.3294 13.567 18.4242C13.5564 18.5189 13.5825 18.6142 13.6398 18.6905L14.1481 19.35C14.3686 19.636 14.5802 19.625 14.8659 19.4425V19.442ZM4.92803 19.442C8.70247 17.024 10.7997 14.2095 11.2188 10.9985C11.8719 5.99996 7.39069 3.55346 5.12001 5.75146C2.84933 7.94996 4.21024 10.74 5.85485 11.503C7.49896 12.2655 8.50447 12 8.32903 13.0195C8.15359 14.0385 5.81425 16.8645 3.75911 18.1805C3.68636 18.2423 3.63999 18.3295 3.62947 18.4243C3.61894 18.519 3.64505 18.6142 3.70247 18.6905L4.21074 19.35C4.43129 19.636 4.64282 19.625 4.92803 19.4425V19.442Z" fill="#5380EA"/>
</svg>
