<svg width="20" height="21" viewBox="0 0 20 21" fill="none" xmlns="http://www.w3.org/2000/svg">
<path d="M4.16667 17.5566H15.8333C16.7538 17.5566 17.5 16.8104 17.5 15.89V4.22331C17.5 3.30283 16.7538 2.55664 15.8333 2.55664H4.16667C3.24619 2.55664 2.5 3.30283 2.5 4.22331V15.89C2.5 16.8104 3.24619 17.5566 4.16667 17.5566ZM4.16667 17.5566L13.3333 8.38997L17.5 12.5566M8.33333 7.13997C8.33333 7.83033 7.77369 8.38997 7.08333 8.38997C6.39298 8.38997 5.83333 7.83033 5.83333 7.13997C5.83333 6.44962 6.39298 5.88997 7.08333 5.88997C7.77369 5.88997 8.33333 6.44962 8.33333 7.13997Z" stroke="white" stroke-width="2" stroke-linecap="round" stroke-linejoin="round"/>
</svg>
