<svg width="20" height="21" viewBox="0 0 20 21" fill="none" xmlns="http://www.w3.org/2000/svg">
<path d="M5.00016 19.2232C4.54183 19.2232 4.14947 19.06 3.82308 18.7336C3.49669 18.4073 3.3335 18.0149 3.3335 17.5566V2.55656C3.3335 2.09823 3.49669 1.70586 3.82308 1.37948C4.14947 1.05309 4.54183 0.889893 5.00016 0.889893H13.3335C13.7918 0.889893 14.1842 1.05309 14.5106 1.37948C14.837 1.70586 15.0002 2.09823 15.0002 2.55656V5.88989H13.3335V5.05656H5.00016V15.0566H13.3335V14.2232H15.0002V17.5566C15.0002 18.0149 14.837 18.4073 14.5106 18.7336C14.1842 19.06 13.7918 19.2232 13.3335 19.2232H5.00016ZM5.00016 16.7232V17.5566H13.3335V16.7232H5.00016ZM12.4585 13.3899L8.91683 9.84823L10.0835 8.68156L12.4585 11.0566L17.1668 6.34823L18.3335 7.51489L12.4585 13.3899ZM5.00016 3.38989H13.3335V2.55656H5.00016V3.38989Z" fill="white"/>
</svg>
